PathFileType  4	(X/Y/Z) C:\Users\15086\Documents\GitHub\mocap-processing\NordTesting\KristenNordTest\
DataRate	CameraRate	NumFrames	NumMarkers	Units	OrigDataRate	OrigDataStartFrame	OrigNumFrames
  200.0		  200.0		   4		     52		 mm	  200.0	      1	   2882
Frame#	Time	C7			R_Shoulder			L_Shoulder			Sternum			R_humerus			R_elbow_med			R_elbow_lat			R_forearm			R_wrist_radius			R_wrist_ulna			L_humerus			L_elbow_med			L_elbow_lat			L_forearm			L_wrist_radius			L_wrist_ulna			r.ASIS			r.PSIS			r_IC			L.ASIS			L.PSIS			l_IC			r_thigh1			r_thigh2			r_thigh3			r_thigh4			r_thigh5			r_knee			r_mknee			r_shank_antsup			r_sh2			r_sh3			r_sh4			r_ankle			r_mankle			r_calc			r_5meta			r_toe			L_thigh1			L_thigh2			L_thigh3			L_thigh4			L_knee			L_mknee			L_shank_antsup			L_sh2			L_sh3			L_ankle			L_mankle			L_calc			L_5meta			L_toe			
		X1	Y1	Z1	X2	Y2	Z2	X3	Y3	Z3	X4	Y4	Z4	X5	Y5	Z5	X6	Y6	Z6	X7	Y7	Z7	X8	Y8	Z8	X9	Y9	Z9	X10	Y10	Z10	X11	Y11	Z11	X12	Y12	Z12	X13	Y13	Z13	X14	Y14	Z14	X15	Y15	Z15	X16	Y16	Z16	X17	Y17	Z17	X18	Y18	Z18	X19	Y19	Z19	X20	Y20	Z20	X21	Y21	Z21	X22	Y22	Z22	X23	Y23	Z23	X24	Y24	Z24	X25	Y25	Z25	X26	Y26	Z26	X27	Y27	Z27	X28	Y28	Z28	X29	Y29	Z29	X30	Y30	Z30	X31	Y31	Z31	X32	Y32	Z32	X33	Y33	Z33	X34	Y34	Z34	X35	Y35	Z35	X36	Y36	Z36	X37	Y37	Z37	X38	Y38	Z38	X39	Y39	Z39	X40	Y40	Z40	X41	Y41	Z41	X42	Y42	Z42	X43	Y43	Z43	X44	Y44	Z44	X45	Y45	Z45	X46	Y46	Z46	X47	Y47	Z47	X48	Y48	Z48	X49	Y49	Z49	X50	Y50	Z50	X51	Y51	Z51	X52	Y52	Z52	

1	0.00000	1212.945	1285.648	-271.861	1328.287	1292.062	-321.370	1086.227	1308.544	-309.331	1203.107	1253.282	-407.178	1501.717	1297.779	-310.622	1644.319	1249.435	-361.006	1638.135	1287.561	-294.405	1614.712	1405.637	-347.747	1570.424	1485.939	-424.329	1612.033	1503.245	-405.550	886.784	1317.459	-283.666	759.858	1268.919	-333.863	762.504	1302.940	-265.494	811.446	1431.796	-325.480	862.109	1495.587	-384.504	808.602	1512.689	-379.934	1312.067	784.335	-440.620	1266.541	854.461	-262.317	1351.574	869.787	-370.892	1071.101	783.082	-428.462	1152.136	849.310	-260.392	1047.908	861.330	-365.234	1379.850	530.243	-399.938	1380.435	415.137	-394.730	1395.980	389.350	-346.512	1387.210	537.897	-292.224	1373.578	419.099	-288.546	1381.339	310.753	-349.516	1253.099	313.536	-332.873	1402.340	291.454	-222.702	1386.145	287.296	-102.438	1398.371	366.905	-217.327	1386.330	370.254	-102.044	1372.822	329.374	70.175	1296.670	296.075	49.874	1318.765	381.512	101.185	1391.021	222.013	135.717	1353.660	172.636	107.957	1006.739	527.961	-391.910	1006.773	388.926	-383.013	1007.420	542.067	-274.192	1016.304	403.857	-268.832	994.938	327.587	-313.268	1124.493	305.279	-316.708	979.071	304.490	-206.007	1001.327	392.513	-207.789	1011.755	384.002	-87.456	1016.377	338.420	97.232	1091.206	299.096	64.013	1068.553	384.869	117.369	1008.278	213.238	157.063	1047.374	165.500	120.288
2	0.00500	1212.954	1285.695	-271.912	1328.314	1292.079	-321.430	1086.250	1308.553	-309.384	1203.134	1253.286	-407.225	1501.732	1297.780	-310.678	1644.323	1249.408	-361.046	1638.145	1287.541	-294.454	1614.750	1405.625	-347.808	1570.514	1485.896	-424.384	1612.105	1503.222	-405.624	886.789	1317.468	-283.681	759.900	1268.906	-333.885	762.510	1302.994	-265.500	811.462	1431.823	-325.544	862.105	1495.600	-384.566	808.584	1512.720	-380.036	1312.046	784.348	-440.657	1266.523	854.493	-262.325	1351.565	869.815	-370.905	1071.056	783.209	-428.388	1152.100	849.316	-260.397	1047.875	861.338	-365.249	1379.849	530.214	-399.926	1380.451	415.153	-394.739	1395.987	389.329	-346.554	1387.173	537.882	-292.211	1373.561	419.089	-288.532	1381.339	310.787	-349.532	1253.057	313.529	-332.880	1402.281	291.453	-222.661	1386.161	287.314	-102.443	1398.397	366.872	-217.340	1386.323	370.293	-102.034	1372.781	329.404	70.169	1296.643	296.130	49.833	1318.751	381.524	101.198	1391.030	222.040	135.714	1353.600	172.718	107.933	1006.764	527.938	-391.927	1006.781	388.924	-383.019	1007.391	542.081	-274.274	1016.270	403.854	-268.811	994.929	327.565	-313.273	1124.502	305.302	-316.753	979.054	304.378	-206.009	1001.328	392.502	-207.803	1011.711	384.013	-87.449	1016.387	338.377	97.272	1091.196	299.126	64.016	1068.521	384.884	117.384	1008.292	213.238	157.068	1047.371	165.454	120.297
3	0.01000	1212.981	1285.682	-271.953	1328.334	1292.087	-321.486	1086.273	1308.557	-309.409	1203.132	1253.269	-407.259	1501.756	1297.750	-310.728	1644.356	1249.366	-361.093	1638.152	1287.527	-294.514	1615.793	1405.693	-347.646	1570.576	1485.847	-424.476	1612.139	1503.178	-405.689	886.801	1317.508	-283.708	759.425	1268.887	-333.685	762.509	1303.047	-265.547	811.459	1431.843	-325.634	862.133	1495.586	-384.667	808.606	1512.695	-380.106	1312.064	784.357	-440.668	1266.495	854.507	-262.345	1351.556	869.810	-370.914	1071.077	783.144	-428.428	1152.063	849.348	-260.426	1047.874	861.357	-365.261	1379.538	530.223	-400.273	1380.431	415.139	-394.742	1395.979	389.349	-346.554	1387.186	537.928	-292.231	1373.540	419.119	-288.517	1381.340	310.810	-349.527	1253.080	313.513	-332.942	1402.396	291.492	-222.726	1386.136	287.333	-102.472	1398.408	366.888	-217.343	1386.319	370.293	-102.014	1372.783	329.427	70.176	1296.646	296.161	49.846	1318.706	381.569	101.192	1391.013	222.090	135.685	1353.566	172.722	107.931	1006.727	527.934	-391.916	1006.787	388.917	-383.019	1008.026	542.033	-272.897	1016.266	403.873	-268.826	994.929	327.568	-313.255	1124.518	305.284	-316.733	979.065	304.322	-206.072	1001.298	392.512	-207.762	1011.706	384.010	-87.417	1016.348	338.397	97.247	1091.163	299.194	64.014	1068.514	384.966	117.344	1008.261	213.234	157.054	1047.379	165.513	120.307
4	0.01500	1213.037	1285.623	-271.994	1328.357	1292.017	-321.435	1086.289	1308.548	-309.472	1203.132	1253.282	-407.334	1501.809	1297.729	-310.781	1644.376	1249.308	-361.144	1638.191	1287.498	-294.573	1615.824	1405.652	-347.711	1570.676	1485.810	-424.512	1612.227	1503.147	-405.762	886.848	1317.500	-283.796	759.952	1268.894	-333.943	762.576	1303.011	-265.578	811.453	1431.892	-325.701	862.161	1495.583	-384.772	808.632	1512.682	-380.187	1312.036	784.348	-440.685	1266.496	854.500	-262.370	1351.549	869.796	-370.953	1071.013	783.125	-428.406	1152.067	849.366	-260.467	1047.862	861.367	-365.270	1379.795	530.250	-399.953	1380.438	415.137	-394.740	1395.959	389.350	-346.552	1387.192	537.936	-292.234	1373.543	419.128	-288.522	1381.354	310.783	-349.508	1253.082	313.525	-332.903	1401.831	291.386	-222.553	1386.138	287.326	-102.470	1398.435	366.887	-217.345	1386.354	370.308	-102.039	1372.760	329.433	70.162	1296.653	296.158	49.881	1318.656	381.612	101.204	1390.987	222.183	135.716	1353.547	172.777	107.922	1006.718	527.964	-391.988	1006.795	388.916	-383.007	1008.006	542.030	-272.847	1016.260	403.869	-268.850	994.941	327.537	-313.267	1124.533	305.316	-316.747	979.054	304.375	-206.059	1001.286	392.525	-207.783	1011.669	384.024	-87.425	1016.360	338.365	97.225	1091.158	299.196	64.034	1068.471	384.986	117.349	1008.249	213.209	157.065	1047.386	165.519	120.312
